<svg xmlns="http://www.w3.org/2000/svg" width="253.13" height="183.724" viewBox="0 0 253.13 183.724">
  <g id="ネコマーク_ロゴタイプ" data-name="ネコマーク・ロゴタイプ" transform="translate(-394.659 -218.633)">
    <g id="グループ_2477" data-name="グループ 2477" transform="translate(394.659 218.633)">
      <g id="グループ_2476" data-name="グループ 2476">
        <g id="グループ_2475" data-name="グループ 2475">
          <path id="パス_11927" data-name="パス 11927" d="M401.4,310.489c0-61,56.1-91.856,126.915-91.856s126.215,30.853,126.215,91.856-55.394,91.154-126.215,91.856S401.4,371.493,401.4,310.489Z" transform="translate(-401.396 -218.633)" fill="#fccf00"/>
          <path id="パス_11928" data-name="パス 11928" d="M654.9,307.268l-2.614-10.641-.67-.244-45.373,17.306H530.467v-.748a14.369,14.369,0,0,0,2.434-3.928,39.816,39.816,0,0,0,2.39-14.265V265.814h-3.149l-18.427,19.12H484.789l-18.427-19.12h-3.149v28.933a39.135,39.135,0,0,0,2.724,15.134c2.956,6.492,6.647,8.328,6.647,8.328v.747h-3.8l-9.8-10.169h-3.148v16.058a21.153,21.153,0,0,0,3.195,12,17.309,17.309,0,0,0,8.356,6.472,16.09,16.09,0,0,0,5.192.957v.748H460.066l-.531.531v5.672l.83,1.028,12.219,6.408v9.049l-9.054,6.21-.345.679v5.847l.53.53h8.868a26.452,26.452,0,0,0,26.182-26.449V344.456l8.673,10.437-9.682,38.842.531.531H514.34l.71-.258,25.828-31.081h42.2l25.83,31.082.71.258h16.052l.531-.531-14.481-58.094,42.952-27.577Z" transform="translate(-420.553 -235.234)" fill="#141414"/>
          <path id="パス_11929" data-name="パス 11929" d="M532.215,318.306c-.661-1.095-.552-2.341.83-3.454a26.23,26.23,0,0,1,13.009-4.4c1.983-.15,3.162.784,3.28,2.583.115,1.73-.7,2.752-2.964,2.926a34.693,34.693,0,0,0-11.274,3.158A2.205,2.205,0,0,1,532.215,318.306Z" transform="translate(-447.289 -250.937)" fill="#ffc400"/>
          <path id="パス_11930" data-name="パス 11930" d="M503.912,318.306c.661-1.095.552-2.341-.83-3.454a26.229,26.229,0,0,0-13.008-4.4c-1.983-.15-3.162.784-3.281,2.583-.114,1.73.7,2.752,2.965,2.926a34.7,34.7,0,0,1,11.274,3.158A2.2,2.2,0,0,0,503.912,318.306Z" transform="translate(-431.44 -250.937)" fill="#ffc400"/>
          <path id="パス_11931" data-name="パス 11931" d="M499.725,364.185a1.827,1.827,0,0,1,.612-2.547,19.335,19.335,0,0,1,9.589-3.24c1.462-.11,2.331.577,2.418,1.9.084,1.276-.515,2.029-2.186,2.157a25.551,25.551,0,0,0-8.31,2.329A1.627,1.627,0,0,1,499.725,364.185Z" transform="translate(-435.893 -267.808)" fill="#ffc400"/>
          <path id="パス_11932" data-name="パス 11932" d="M481.991,364.185a1.827,1.827,0,0,0-.612-2.547,19.336,19.336,0,0,0-9.59-3.24c-1.462-.111-2.331.577-2.418,1.9-.084,1.276.515,2.029,2.186,2.157a25.559,25.559,0,0,1,8.311,2.329A1.626,1.626,0,0,0,481.991,364.185Z" transform="translate(-425.311 -267.808)" fill="#ffc400"/>
        </g>
      </g>
    </g>
  </g>
</svg>
